<svg width="160" height="58" viewBox="0 0 160 58" fill="none" xmlns="http://www.w3.org/2000/svg">
<rect width="160" height="58" fill="white"/>
<rect x="6.5" y="3.5" width="148" height="49.9896" fill="white" stroke="black"/>
<rect x="16.979" y="13.5625" width="60.7684" height="29.8646" fill="black" stroke="black" stroke-width="10"/>
<rect x="81" y="8.5625" width="69.021" height="39.8646" fill="white"/>
<path d="M40.316 37.5063C41.228 37.5063 41.924 36.9423 42.404 35.8143C42.896 34.6863 43.142 32.8263 43.142 30.2343V28.4163C43.142 26.5203 42.914 25.0563 42.458 24.0243C42.002 22.9923 41.354 22.4763 40.514 22.4763H39.164V37.5063H40.316ZM40.874 40.5843C40.442 40.5843 39.77 40.5603 38.858 40.5123C37.958 40.4763 37.028 40.4583 36.068 40.4583H33.206V19.3623H36.068C36.872 19.3503 37.748 19.3203 38.696 19.2723C39.644 19.2243 40.388 19.2003 40.928 19.2003C43.988 19.2003 46.178 20.0583 47.498 21.7743C48.83 23.4903 49.496 25.9923 49.496 29.2803C49.496 30.3963 49.418 31.4583 49.262 32.4663C49.118 33.4743 48.842 34.4883 48.434 35.5083C48.026 36.5163 47.51 37.3863 46.886 38.1183C46.262 38.8503 45.434 39.4443 44.402 39.9003C43.37 40.3563 42.194 40.5843 40.874 40.5843ZM57.2004 40.4583H51.3864V28.8123L50.3064 28.1463V26.1123L54.1764 25.1583H55.6344L56.1564 29.4423C56.6484 26.5023 58.2264 25.0323 60.8904 25.0323C61.1904 25.0323 61.5024 25.0863 61.8264 25.1943L61.2144 31.6023C60.9624 31.3743 60.4104 31.2603 59.5584 31.2603C58.3344 31.2603 57.5484 31.5843 57.2004 32.2323V40.4583ZM65.0877 40.8003L62.1357 37.8303V37.2003L65.0877 34.2483H65.7717L68.8497 37.2003V37.8303L65.7717 40.8003H65.0877Z" fill="white"/>
<path d="M101.625 38.7812V27.1353L100.545 26.4692V24.5433L104.415 23.4813H107.421V38.7812H101.625ZM104.235 21.8252L101.283 18.8553V18.2252L104.235 15.2732H104.919L107.997 18.2252V18.8553L104.919 21.8252H104.235ZM117.878 36.1353C118.574 36.1353 119.072 35.8953 119.372 35.4152C119.816 34.6833 120.038 32.8773 120.038 29.9973V25.4793C120.038 23.7633 119.87 22.4852 119.534 21.6452C119.198 20.8053 118.646 20.3853 117.878 20.3853C117.338 20.3853 116.918 20.5773 116.618 20.9613C116.078 21.6573 115.808 23.3733 115.808 26.1093V30.8073C115.808 32.7993 115.958 34.1853 116.258 34.9653C116.57 35.7453 117.11 36.1353 117.878 36.1353ZM119.732 44.6132C118.172 44.6132 117.062 44.1812 116.402 43.3172C115.742 42.4653 115.382 41.0253 115.322 38.9972C114.59 38.8772 113.93 38.6852 113.342 38.4212C112.754 38.1573 112.25 37.8513 111.83 37.5032C111.41 37.1432 111.044 36.7113 110.732 36.2073C110.42 35.7032 110.162 35.1752 109.958 34.6233C109.766 34.0713 109.61 33.4473 109.49 32.7513C109.37 32.0432 109.286 31.3412 109.238 30.6452C109.202 29.9492 109.184 29.1693 109.184 28.3053C109.184 26.8653 109.256 25.6113 109.4 24.5433C109.556 23.4753 109.838 22.4733 110.246 21.5372C110.654 20.5892 111.194 19.8212 111.866 19.2333C112.55 18.6453 113.426 18.1833 114.494 17.8472C115.574 17.5113 116.846 17.3433 118.31 17.3433C119.318 17.3433 120.224 17.4393 121.028 17.6313C121.832 17.8113 122.522 18.0633 123.098 18.3873C123.674 18.7113 124.172 19.1313 124.592 19.6472C125.024 20.1632 125.366 20.7152 125.618 21.3033C125.882 21.8793 126.092 22.5573 126.248 23.3373C126.404 24.1173 126.512 24.8912 126.572 25.6592C126.632 26.4273 126.662 27.2973 126.662 28.2692C126.662 29.4213 126.614 30.4533 126.518 31.3652C126.422 32.2652 126.248 33.1292 125.996 33.9573C125.744 34.7733 125.414 35.4813 125.006 36.0812C124.61 36.6813 124.094 37.2093 123.458 37.6653C122.834 38.1093 122.096 38.4573 121.244 38.7093V38.7992C121.244 39.7592 121.382 40.3952 121.658 40.7073C121.946 41.0192 122.384 41.1752 122.972 41.1752C123.14 41.1752 123.296 41.1572 123.44 41.1212C123.596 41.0972 123.734 41.0612 123.854 41.0132C123.974 40.9652 124.088 40.9052 124.196 40.8332V43.2813C124.184 43.2933 124.166 43.3112 124.142 43.3352C123.158 44.1872 121.688 44.6132 119.732 44.6132Z" fill="black"/>
</svg>
