<svg width="166" height="89" viewBox="0 0 166 89" fill="none" xmlns="http://www.w3.org/2000/svg">
<rect y="9" width="166" height="80" fill="white"/>
<rect x="8.5" y="19.0417" width="148" height="49.9896" fill="white" stroke="black"/>
<rect x="18.979" y="29.1042" width="60.7684" height="29.8646" fill="black" stroke="black" stroke-width="10"/>
<rect x="83" y="24.1042" width="69.021" height="39.8646" fill="white"/>
<path d="M42.316 53.048C43.228 53.048 43.924 52.484 44.404 51.356C44.896 50.228 45.142 48.368 45.142 45.776V43.958C45.142 42.062 44.914 40.598 44.458 39.566C44.002 38.534 43.354 38.018 42.514 38.018H41.164V53.048H42.316ZM42.874 56.126C42.442 56.126 41.77 56.102 40.858 56.054C39.958 56.018 39.028 56 38.068 56H35.206V34.904H38.068C38.872 34.892 39.748 34.862 40.696 34.814C41.644 34.766 42.388 34.742 42.928 34.742C45.988 34.742 48.178 35.6 49.498 37.316C50.83 39.032 51.496 41.534 51.496 44.822C51.496 45.938 51.418 47 51.262 48.008C51.118 49.016 50.842 50.03 50.434 51.05C50.026 52.058 49.51 52.928 48.886 53.66C48.262 54.392 47.434 54.986 46.402 55.442C45.37 55.898 44.194 56.126 42.874 56.126ZM59.2004 56H53.3864V44.354L52.3064 43.688V41.654L56.1764 40.7H57.6344L58.1564 44.984C58.6484 42.044 60.2264 40.574 62.8904 40.574C63.1904 40.574 63.5024 40.628 63.8264 40.736L63.2144 47.144C62.9624 46.916 62.4104 46.802 61.5584 46.802C60.3344 46.802 59.5484 47.126 59.2004 47.774V56ZM67.0877 56.342L64.1357 53.372V52.742L67.0877 49.79H67.7717L70.8497 52.742V53.372L67.7717 56.342H67.0877Z" fill="white"/>
<path d="M103.625 54.3229V42.6769L102.545 42.0109V40.0849L106.415 39.0229H109.421V54.3229H103.625ZM106.235 37.3669L103.283 34.3969V33.7669L106.235 30.8149H106.919L109.997 33.7669V34.3969L106.919 37.3669H106.235ZM119.878 51.6769C120.574 51.6769 121.072 51.4369 121.372 50.9569C121.816 50.2249 122.038 48.4189 122.038 45.5389V41.0209C122.038 39.3049 121.87 38.0269 121.534 37.1869C121.198 36.3469 120.646 35.9269 119.878 35.9269C119.338 35.9269 118.918 36.1189 118.618 36.5029C118.078 37.1989 117.808 38.9149 117.808 41.6509V46.3489C117.808 48.3409 117.958 49.7269 118.258 50.5069C118.57 51.2869 119.11 51.6769 119.878 51.6769ZM121.732 60.1549C120.172 60.1549 119.062 59.7229 118.402 58.8589C117.742 58.0069 117.382 56.5669 117.322 54.5389C116.59 54.4189 115.93 54.2269 115.342 53.9629C114.754 53.6989 114.25 53.3929 113.83 53.0449C113.41 52.6849 113.044 52.2529 112.732 51.7489C112.42 51.2449 112.162 50.7169 111.958 50.1649C111.766 49.6129 111.61 48.9889 111.49 48.2929C111.37 47.5849 111.286 46.8829 111.238 46.1869C111.202 45.4909 111.184 44.7109 111.184 43.8469C111.184 42.4069 111.256 41.1529 111.4 40.0849C111.556 39.0169 111.838 38.0149 112.246 37.0789C112.654 36.1309 113.194 35.3629 113.866 34.7749C114.55 34.1869 115.426 33.7249 116.494 33.3889C117.574 33.0529 118.846 32.8849 120.31 32.8849C121.318 32.8849 122.224 32.9809 123.028 33.1729C123.832 33.3529 124.522 33.6049 125.098 33.9289C125.674 34.2529 126.172 34.6729 126.592 35.1889C127.024 35.7049 127.366 36.2569 127.618 36.8449C127.882 37.4209 128.092 38.0989 128.248 38.8789C128.404 39.6589 128.512 40.4329 128.572 41.2009C128.632 41.9689 128.662 42.8389 128.662 43.8109C128.662 44.9629 128.614 45.9949 128.518 46.9069C128.422 47.8069 128.248 48.6709 127.996 49.4989C127.744 50.3149 127.414 51.0229 127.006 51.6229C126.61 52.2229 126.094 52.7509 125.458 53.2069C124.834 53.6509 124.096 53.9989 123.244 54.2509V54.3409C123.244 55.3009 123.382 55.9369 123.658 56.2489C123.946 56.5609 124.384 56.7169 124.972 56.7169C125.14 56.7169 125.296 56.6989 125.44 56.6629C125.596 56.6389 125.734 56.6029 125.854 56.5549C125.974 56.5069 126.088 56.4469 126.196 56.3749V58.8229C126.184 58.8349 126.166 58.8529 126.142 58.8769C125.158 59.7289 123.688 60.1549 121.732 60.1549Z" fill="black"/>
<path d="M22.78 84.75V78.28L22.18 77.91V76.84L24.33 76.25H26V84.75H22.78ZM24.23 75.33L22.59 73.68V73.33L24.23 71.69H24.61L26.32 73.33V73.68L24.61 75.33H24.23ZM30.6096 84.75H27.3796V78.28L26.7796 77.91V76.84L28.9296 76.25H30.6296V77.54C30.6629 77.4933 30.7096 77.4333 30.7696 77.36C30.8363 77.28 30.9563 77.1567 31.1296 76.99C31.3029 76.8233 31.4796 76.6767 31.6596 76.55C31.8463 76.4233 32.0696 76.31 32.3296 76.21C32.5963 76.1033 32.8596 76.05 33.1196 76.05C33.7863 76.05 34.2963 76.1767 34.6496 76.43C35.0029 76.6833 35.2529 77.0967 35.3996 77.67C35.6263 77.2767 35.9729 76.91 36.4396 76.57C36.9129 76.2233 37.4329 76.05 37.9996 76.05C38.6263 76.05 39.1129 76.16 39.4596 76.38C39.8129 76.5933 40.0696 76.96 40.2296 77.48C40.3896 78 40.4696 78.7333 40.4696 79.68V84.75H37.2196V79.39C37.2196 79.0967 37.1496 78.8667 37.0096 78.7C36.8696 78.5333 36.6563 78.45 36.3696 78.45C36.1763 78.45 35.9129 78.61 35.5796 78.93C35.5996 79.25 35.6096 79.5967 35.6096 79.97V84.75H32.3096V79.39C32.3296 78.7633 32.0629 78.45 31.5096 78.45C31.4696 78.45 31.4296 78.4533 31.3896 78.46C31.3563 78.4667 31.3229 78.4733 31.2896 78.48C31.2629 78.4867 31.2296 78.5 31.1896 78.52C31.1563 78.5333 31.1263 78.5467 31.0996 78.56C31.0729 78.5667 31.0429 78.5833 31.0096 78.61C30.9763 78.63 30.9496 78.6467 30.9296 78.66C30.9096 78.6733 30.8796 78.6967 30.8396 78.73C30.8063 78.7567 30.7796 78.7767 30.7596 78.79C30.7463 78.8033 30.7196 78.8267 30.6796 78.86C30.6463 78.8867 30.6229 78.9067 30.6096 78.92V84.75ZM46.8551 84.75C46.4684 84.75 46.1151 84.71 45.7951 84.63C45.4751 84.55 45.1951 84.45 44.9551 84.33V87.77H41.7351V78.28L41.1351 77.91V76.84L43.2851 76.25H44.9551V76.92C45.1951 76.6733 45.4851 76.4667 45.8251 76.3C46.1651 76.1333 46.5617 76.05 47.0151 76.05C48.1151 76.05 48.9217 76.4267 49.4351 77.18C49.9551 77.9333 50.2151 78.9767 50.2151 80.31C50.2151 80.9367 50.1451 81.5167 50.0051 82.05C49.8651 82.5767 49.6584 83.0433 49.3851 83.45C49.1117 83.8567 48.7584 84.1767 48.3251 84.41C47.8984 84.6367 47.4084 84.75 46.8551 84.75ZM45.3851 83.36C46.2784 83.36 46.7251 82.6767 46.7251 81.31V79.61C46.7251 79.01 46.6217 78.5633 46.4151 78.27C46.2151 77.9767 45.9551 77.83 45.6351 77.83C45.4151 77.83 45.1884 77.8967 44.9551 78.03V83.31C45.0351 83.33 45.1084 83.3433 45.1751 83.35C45.2484 83.3567 45.3184 83.36 45.3851 83.36ZM54.6037 84.75H51.3738V78.28L50.7738 77.91V76.78L52.9237 76.25H53.7337L54.0237 78.63C54.2971 76.9967 55.1737 76.18 56.6537 76.18C56.8204 76.18 56.9938 76.21 57.1738 76.27L56.8338 79.83C56.6938 79.7033 56.3871 79.64 55.9137 79.64C55.2337 79.64 54.7971 79.82 54.6037 80.18V84.75ZM61.9855 83.76C62.2789 83.76 62.5022 83.64 62.6555 83.4C62.8155 83.1533 62.8955 82.8167 62.8955 82.39V79.23C62.8955 77.93 62.5889 77.28 61.9755 77.28C61.6889 77.28 61.4655 77.3967 61.3055 77.63C61.1455 77.8633 61.0655 78.1933 61.0655 78.62V81.87C61.0655 83.13 61.3722 83.76 61.9855 83.76ZM61.9055 84.96C60.3789 84.96 59.2622 84.6133 58.5555 83.92C57.8489 83.2267 57.4955 82.12 57.4955 80.6C57.4955 79.0933 57.8522 77.96 58.5655 77.2C59.2789 76.4333 60.4389 76.05 62.0455 76.05C63.6122 76.05 64.7422 76.4167 65.4355 77.15C66.1355 77.8767 66.4855 78.98 66.4855 80.46C66.4855 81.9933 66.1155 83.1267 65.3755 83.86C64.6422 84.5933 63.4855 84.96 61.9055 84.96ZM69.5149 84.75L66.5749 76.25H70.1649L70.8049 79.32L71.2649 81.97L71.7749 79.32L72.5149 76.25H75.2149L72.6649 84.75H69.5149ZM80.268 79.58C80.268 78.7333 80.2247 78.1333 80.138 77.78C80.0514 77.4267 79.8914 77.25 79.658 77.25C79.458 77.25 79.2947 77.2867 79.168 77.36C79.0414 77.4267 78.948 77.5367 78.888 77.69C78.828 77.8367 78.788 77.99 78.768 78.15C78.7547 78.3033 78.748 78.5 78.748 78.74V79.58H80.268ZM79.468 84.96C78.7214 84.96 78.0714 84.8467 77.518 84.62C76.9714 84.3933 76.538 84.0767 76.218 83.67C75.9047 83.2633 75.6747 82.8067 75.528 82.3C75.3814 81.7867 75.308 81.2167 75.308 80.59C75.308 79.0967 75.688 77.9667 76.448 77.2C77.208 76.4333 78.2714 76.05 79.638 76.05C80.9514 76.05 81.8914 76.36 82.458 76.98C83.0247 77.5933 83.308 78.5833 83.308 79.95V81.06H78.738V81.25C78.738 81.6433 78.778 81.9667 78.858 82.22C78.9447 82.4733 79.068 82.66 79.228 82.78C79.388 82.9 79.5514 82.98 79.718 83.02C79.8847 83.06 80.088 83.08 80.328 83.08C80.5614 83.08 80.8114 83.05 81.078 82.99C81.3514 82.93 81.6247 82.8367 81.898 82.71C82.178 82.5833 82.4114 82.4333 82.598 82.26L83.188 83.27C82.9414 83.67 82.578 84.0067 82.098 84.28C81.6247 84.5467 81.168 84.7267 80.728 84.82C80.288 84.9133 79.868 84.96 79.468 84.96ZM92.505 88.19C91.8183 88.19 91.1717 88.09 90.565 87.89C89.9583 87.69 89.515 87.42 89.235 87.08L89.755 86C90.1417 86.22 90.755 86.33 91.595 86.33C91.8617 86.33 92.0917 86.3 92.285 86.24C92.4783 86.18 92.6517 86.0733 92.805 85.92C92.9583 85.7733 93.075 85.5633 93.155 85.29C93.235 85.0167 93.2783 84.68 93.285 84.28V83.42L93.185 83.58C93.1183 83.6867 93.015 83.8167 92.875 83.97C92.7417 84.1167 92.5883 84.2667 92.415 84.42C92.2417 84.5667 92.0283 84.6933 91.775 84.8C91.5283 84.9067 91.275 84.96 91.015 84.96C90.0217 84.96 89.3217 84.6833 88.915 84.13C88.5083 83.57 88.305 82.63 88.305 81.31V77.76L87.945 77.4V76.25H91.585V81.94C91.585 82.2467 91.6317 82.4733 91.725 82.62C91.825 82.76 92.0217 82.83 92.315 82.83C92.4017 82.83 92.4883 82.8167 92.575 82.79C92.6617 82.7567 92.745 82.7133 92.825 82.66C92.9117 82.6067 93.0017 82.54 93.095 82.46V77.76L92.545 77.4V76.25H96.355V83.58C96.355 85.0533 96.0417 86.19 95.415 86.99C94.7883 87.79 93.8183 88.19 92.505 88.19ZM101.712 83.76C102.005 83.76 102.229 83.64 102.382 83.4C102.542 83.1533 102.622 82.8167 102.622 82.39V79.23C102.622 77.93 102.315 77.28 101.702 77.28C101.415 77.28 101.192 77.3967 101.032 77.63C100.872 77.8633 100.792 78.1933 100.792 78.62V81.87C100.792 83.13 101.099 83.76 101.712 83.76ZM101.632 84.96C100.105 84.96 98.9888 84.6133 98.2821 83.92C97.5754 83.2267 97.2221 82.12 97.2221 80.6C97.2221 79.0933 97.5788 77.96 98.2921 77.2C99.0054 76.4333 100.165 76.05 101.772 76.05C103.339 76.05 104.469 76.4167 105.162 77.15C105.862 77.8767 106.212 78.98 106.212 80.46C106.212 81.9933 105.842 83.1267 105.102 83.86C104.369 84.5933 103.212 84.96 101.632 84.96ZM112.191 83.42C112.151 83.5133 112.068 83.6367 111.941 83.79C111.821 83.9433 111.661 84.1133 111.461 84.3C111.261 84.48 111.015 84.6333 110.721 84.76C110.428 84.8933 110.131 84.96 109.831 84.96C108.891 84.96 108.218 84.68 107.811 84.12C107.411 83.56 107.211 82.6267 107.211 81.32V77.76L106.861 77.4V76.25H110.491V81.95C110.485 82.25 110.535 82.4733 110.641 82.62C110.748 82.76 110.941 82.83 111.221 82.83C111.261 82.83 111.298 82.83 111.331 82.83C111.365 82.8233 111.398 82.8167 111.431 82.81C111.465 82.7967 111.491 82.7867 111.511 82.78C111.538 82.7733 111.568 82.7633 111.601 82.75C111.635 82.73 111.661 82.7133 111.681 82.7C111.701 82.6867 111.728 82.67 111.761 82.65C111.795 82.6233 111.818 82.6033 111.831 82.59C111.851 82.5767 111.878 82.5567 111.911 82.53C111.951 82.4967 111.981 82.4733 112.001 82.46V77.76L111.461 77.4V76.25H115.271V84.75H112.501L112.191 83.42ZM119.877 84.75H116.647V78.28L116.047 77.91V76.78L118.197 76.25H119.007L119.297 78.63C119.571 76.9967 120.447 76.18 121.927 76.18C122.094 76.18 122.267 76.21 122.447 76.27L122.107 79.83C121.967 79.7033 121.661 79.64 121.187 79.64C120.507 79.64 120.071 79.82 119.877 80.18V84.75ZM127.253 84.75V78.28L126.653 77.91V76.84L128.803 76.25H130.473V84.75H127.253ZM128.703 75.33L127.063 73.68V73.33L128.703 71.69H129.083L130.793 73.33V73.68L129.083 75.33H128.703ZM136.282 83.28C136.669 83.28 136.946 83.1467 137.112 82.88C137.359 82.4733 137.482 81.47 137.482 79.87V77.36C137.482 76.4067 137.389 75.6967 137.202 75.23C137.016 74.7633 136.709 74.53 136.282 74.53C135.982 74.53 135.749 74.6367 135.582 74.85C135.282 75.2367 135.132 76.19 135.132 77.71V80.32C135.132 81.4267 135.216 82.1967 135.382 82.63C135.556 83.0633 135.856 83.28 136.282 83.28ZM137.312 87.99C136.446 87.99 135.829 87.75 135.462 87.27C135.096 86.7967 134.896 85.9967 134.862 84.87C134.456 84.8033 134.089 84.6967 133.762 84.55C133.436 84.4033 133.156 84.2333 132.922 84.04C132.689 83.84 132.486 83.6 132.312 83.32C132.139 83.04 131.996 82.7467 131.882 82.44C131.776 82.1333 131.689 81.7867 131.622 81.4C131.556 81.0067 131.509 80.6167 131.482 80.23C131.462 79.8433 131.452 79.41 131.452 78.93C131.452 78.13 131.492 77.4333 131.572 76.84C131.659 76.2467 131.816 75.69 132.042 75.17C132.269 74.6433 132.569 74.2167 132.942 73.89C133.322 73.5633 133.809 73.3067 134.402 73.12C135.002 72.9333 135.709 72.84 136.522 72.84C137.082 72.84 137.586 72.8933 138.032 73C138.479 73.1 138.862 73.24 139.182 73.42C139.502 73.6 139.779 73.8333 140.012 74.12C140.252 74.4067 140.442 74.7133 140.582 75.04C140.729 75.36 140.846 75.7367 140.932 76.17C141.019 76.6033 141.079 77.0333 141.112 77.46C141.146 77.8867 141.162 78.37 141.162 78.91C141.162 79.55 141.136 80.1233 141.082 80.63C141.029 81.13 140.932 81.61 140.792 82.07C140.652 82.5233 140.469 82.9167 140.242 83.25C140.022 83.5833 139.736 83.8767 139.382 84.13C139.036 84.3767 138.626 84.57 138.152 84.71V84.76C138.152 85.2933 138.229 85.6467 138.382 85.82C138.542 85.9933 138.786 86.08 139.112 86.08C139.206 86.08 139.292 86.07 139.372 86.05C139.459 86.0367 139.536 86.0167 139.602 85.99C139.669 85.9633 139.732 85.93 139.792 85.89V87.25C139.786 87.2567 139.776 87.2667 139.762 87.28C139.216 87.7533 138.399 87.99 137.312 87.99Z" fill="black"/>
</svg>
